<svg xmlns="http://www.w3.org/2000/svg" viewBox="0 0 1920 1080"><filter id="b"><feGaussianBlur stdDeviation="12" /></filter><path fill="#839db6" d="M0 0h1920v1080H0z"/><g filter="url(#b)" transform="matrix(7.5 0 0 7.5 3.8 3.8)" fill-opacity=".5"><ellipse rx="1" ry="1" transform="matrix(-23.55062 -22.23496 38.16354 -40.4217 17 3.5)"/><ellipse fill="#cde8ff" cx="64" cy="82" rx="48" ry="48"/><path fill="#001428" d="M261-13L133 1l138 36z"/><ellipse fill="#00000e" rx="1" ry="1" transform="matrix(31.0996 -54.8676 19.01787 10.77955 255 131.8)"/><ellipse fill="#dceefc" rx="1" ry="1" transform="matrix(1.01512 18.15673 -102.42811 5.72662 194.2 72.4)"/><ellipse fill="#f9ffff" rx="1" ry="1" transform="matrix(-6.76707 53.22233 -23.23331 -2.95405 125.5 143)"/><path d="M-46.6 100.2L62 155.5l-15.5 30.3L-62 130.5z"/><ellipse fill="#27679a" rx="1" ry="1" transform="rotate(129.7 52.3 32.5) scale(31.38103 48.72903)"/></g></svg>