<svg xmlns="http://www.w3.org/2000/svg" viewBox="0 0 1000 992"><filter id="b"><feGaussianBlur stdDeviation="12" /></filter><path fill="#aebec7" d="M0 0h1000v988H0z"/><g filter="url(#b)" transform="translate(2 2) scale(3.90625)" fill-opacity=".5"><ellipse fill="#61859e" rx="1" ry="1" transform="matrix(116.85945 20.34402 -16.9912 97.6003 130.2 117.3)"/><ellipse fill="#fff" rx="1" ry="1" transform="matrix(-33.20869 16.92067 -72.85846 -142.99278 218.4 0)"/><ellipse fill="#fff" rx="1" ry="1" transform="matrix(-28.90691 -15.30542 65.7678 -124.21375 227.5 233)"/><ellipse fill="#fff" rx="1" ry="1" transform="matrix(-194.48042 -164.9314 21.26323 -25.07274 25.7 231.4)"/><ellipse fill="#fff" rx="1" ry="1" transform="matrix(-141.93446 122.81892 -21.95797 -25.37551 0 44.4)"/><ellipse fill="#003381" cx="96" cy="110" rx="9" ry="64"/><path fill="#fff" d="M104 38h13v144h-13z"/><path fill="#00287a" d="M34 51h15v115H34z"/></g></svg>