<svg xmlns="http://www.w3.org/2000/svg" viewBox="0 0 1920 1080"><filter id="b"><feGaussianBlur stdDeviation="12" /></filter><path fill="#8d909a" d="M0 0h1920v1080H0z"/><g filter="url(#b)" transform="matrix(7.5 0 0 7.5 3.8 3.8)" fill-opacity=".5"><ellipse fill="#1d182c" cx="223" cy="46" rx="123" ry="52"/><ellipse fill="#fff" cx="19" cy="113" rx="255" ry="14"/><ellipse fill="#fff" rx="1" ry="1" transform="rotate(15.8 41.4 298.2) scale(45.13772 29.79323)"/><ellipse fill="#e5f7ff" rx="1" ry="1" transform="rotate(80.5 3 165.4) scale(23.21249 81.79842)"/><ellipse fill="#eefcff" rx="1" ry="1" transform="rotate(110.8 -12.3 25.1) scale(20.31326 82.90641)"/><ellipse fill="#fff" rx="1" ry="1" transform="matrix(19.00104 53.06784 -17.5645 6.289 0 92.2)"/><path fill="#2a180f" d="M120.6 37.8l-3.8 26.7-59.4-8.3 3.8-26.7z"/><path fill="#231f1d" d="M28 159l-33-12 103-36z"/></g></svg>