<svg xmlns="http://www.w3.org/2000/svg" viewBox="0 0 1920 1080"><filter id="c"><feGaussianBlur stdDeviation="55" /></filter><path fill="#8d909a" d="M0 0h1920v1080H0z"/><g filter='url(#c)' fill-opacity='.5'><ellipse fill="#1a152a" fill-opacity=".5" rx="1" ry="1" transform="matrix(10.32793 -454.89434 565.46253 12.83827 1465.4 297.6)"/><ellipse fill="#f1fcff" fill-opacity=".5" rx="1" ry="1" transform="matrix(3.4049 -150.04036 1749.7431 39.70723 779.3 910.6)"/><ellipse fill="#fff" fill-opacity=".5" rx="1" ry="1" transform="matrix(421.67437 10.73947 -2.98865 117.3462 531.4 88)"/><ellipse fill="#f4ffff" fill-opacity=".5" rx="1" ry="1" transform="rotate(-61.2 394.3 35.8) scale(128.70987 476.41479)"/><ellipse fill="#1b0800" fill-opacity=".5" rx="1" ry="1" transform="rotate(-77.2 577.8 -260.4) scale(107.04119 252.98476)"/><path fill="#332a23" fill-opacity=".5" d="M220.4 993.8l447-128.1 49.7 173-447 128.1z"/><path fill="#fff" fill-opacity=".5" d="M67.3 459.4L-116.2 57.8V1005l364.2 32.3z"/><path fill="#ffcbd2" fill-opacity=".5" d="M843.8 566.3h367.5v120H843.8z"/></g></svg>