<svg xmlns="http://www.w3.org/2000/svg" viewBox="0 0 1920 1080"><filter id="b"><feGaussianBlur stdDeviation="12" /></filter><path fill="#d5d6d8" d="M0 0h1920v1080H0z"/><g filter="url(#b)" transform="matrix(7.5 0 0 7.5 3.8 3.8)" fill-opacity=".5"><ellipse rx="1" ry="1" transform="matrix(-24.2462 -8.666 7.46453 -20.88465 31.1 10.8)"/><ellipse fill="#5b554a" rx="1" ry="1" transform="matrix(46.3698 14.44258 -11.3565 36.46151 228.2 20.8)"/><ellipse fill="#fdffff" cx="86" cy="138" rx="119" ry="119"/><path d="M8.6 9.6L48.5-6.5l10.9 26.9-39.9 16.1zm237.2-23.2l5.6 7.1-51.2 40-5.6-7z"/><path fill="#000715" d="M-4.3-8.7L25.5-29l30.8 45.6L26.5 37z"/><ellipse fill="#efeff6" cx="123" cy="85" rx="145" ry="31"/><ellipse fill="#9b988f" cx="184" cy="25" rx="14" ry="14"/></g></svg>