<svg xmlns="http://www.w3.org/2000/svg" viewBox="0 0 1920 1080"><filter id="b"><feGaussianBlur stdDeviation="12" /></filter><path fill="#67504c" d="M0 0h1920v1080H0z"/><g filter="url(#b)" transform="matrix(7.5 0 0 7.5 3.8 3.8)" fill-opacity=".5"><ellipse fill="#f51300" rx="1" ry="1" transform="matrix(39.72744 .02438 -.02206 35.95025 185.2 53.6)"/><ellipse rx="1" ry="1" transform="matrix(27.62105 -6.37682 20.43836 88.52828 241.8 50)"/><path fill="#ffffda" d="M191.6 115.2l50.1-12.8-132.4-6.6-28 13.9z"/><ellipse fill="#abd4ea" cx="46" cy="127" rx="183" ry="8"/><ellipse fill="#151b29" rx="1" ry="1" transform="matrix(22.01997 3.92235 -22.44982 126.03258 17.3 9.5)"/><ellipse fill="#71727e" cx="94" cy="45" rx="49" ry="49"/><path fill="#12a9ff" d="M7 107l42 27 3-21z"/><ellipse fill="#e6d4a8" cx="142" cy="143" rx="190" ry="5"/></g></svg>