<svg xmlns="http://www.w3.org/2000/svg" viewBox="0 0 1920 1080"><filter id="b"><feGaussianBlur stdDeviation="12" /></filter><path fill="#606261" d="M0 0h1920v1080H0z"/><g filter="url(#b)" transform="matrix(7.5 0 0 7.5 3.8 3.8)" fill-opacity=".5"><ellipse fill="#fffffa" rx="1" ry="1" transform="matrix(22.20089 -38.47938 133.02411 76.749 31 130.9)"/><ellipse fill="#151a1e" rx="1" ry="1" transform="matrix(-78.68087 38.13168 -25.46725 -52.5491 193.1 84)"/><ellipse fill="#9b9995" rx="1" ry="1" transform="matrix(67.46493 -23.02262 7.06015 20.68888 51 47.4)"/><path fill="#0e0000" d="M237.7 115.8l21.6 3-2.7-93.7-15.6 1.5z"/><ellipse fill="#4f5557" rx="1" ry="1" transform="matrix(73.60212 -51.69335 11.66642 16.6109 150.3 60.8)"/><ellipse fill="#ffffef" cx="115" cy="143" rx="20" ry="7"/><ellipse fill="#00050a" cx="119" cy="76" rx="4" ry="59"/><ellipse fill="#aba49d" rx="1" ry="1" transform="rotate(-124.5 164.5 4.7) scale(26.45288 16.22931)"/></g></svg>