<svg xmlns="http://www.w3.org/2000/svg" viewBox="0 0 1920 1080"><filter id="b"><feGaussianBlur stdDeviation="12" /></filter><path fill="#392e54" d="M0 0h1920v1080H0z"/><g filter="url(#b)" transform="matrix(7.5 0 0 7.5 3.8 3.8)" fill-opacity=".5"><ellipse fill="#b391e4" rx="1" ry="1" transform="matrix(-9.25253 -23.22494 76.10322 -30.31858 129.3 67.9)"/><path fill="#d6a9ff" d="M64 30h26v64H64z"/><ellipse fill="#000005" rx="1" ry="1" transform="matrix(-36.15895 3.99198 -9.63803 -87.30016 235.6 29)"/><ellipse fill="#010225" rx="1" ry="1" transform="matrix(37.22065 3.38027 -21.73115 239.28508 14 93.3)"/><path fill="#e4b0ff" d="M172 33h14v72h-14z"/><path fill="#1b0f18" d="M43-1l127 71-27-68z"/><path fill="#0a001c" d="M82 66l20 28 15-75z"/><ellipse fill="#c791ea" cx="129" cy="74" rx="19" ry="26"/></g></svg>