<svg xmlns="http://www.w3.org/2000/svg" viewBox="0 0 1920 1365"><filter id="b"><feGaussianBlur stdDeviation="12" /></filter><path fill="#003da3" d="M0 0h1920v1365H0z"/><g filter="url(#b)" transform="matrix(7.5 0 0 7.5 3.8 3.8)" fill-opacity=".5"><ellipse fill="#02b8ff" rx="1" ry="1" transform="rotate(8.6 -27.5 1458.3) scale(36.3688 101.2096)"/><ellipse fill="#001a7f" cx="10" cy="60" rx="165" ry="165"/><ellipse fill="#0054d5" rx="1" ry="1" transform="rotate(168.7 99.6 84.3) scale(30.14793 55.20783)"/><ellipse fill="#03a2ff" cx="204" rx="27" ry="80"/><ellipse fill="#005bd8" rx="1" ry="1" transform="matrix(-7.05174 -5.80715 61.97336 -75.25548 94.2 147.8)"/><ellipse fill="#000859" rx="1" ry="1" transform="matrix(-41.20629 33.84373 -10.63753 -12.95168 55.8 145.7)"/><ellipse fill="#024bc1" rx="1" ry="1" transform="matrix(-73.92987 19.01383 -3.77257 -14.66855 110.7 48.4)"/><ellipse fill="#000755" rx="1" ry="1" transform="rotate(-161.1 45.1 -7.5) scale(48.16909 24.05345)"/></g></svg>