<svg xmlns="http://www.w3.org/2000/svg" viewBox="0 0 1920 1080"><filter id="b"><feGaussianBlur stdDeviation="12" /></filter><path fill="#807064" d="M0 0h1920v1080H0z"/><g filter="url(#b)" transform="matrix(7.5 0 0 7.5 3.8 3.8)" fill-opacity=".5"><path fill="#e0ebfc" d="M-5.3-4.7l255 4.4-.4 25-255-4.4z"/><ellipse fill="#8b2600" rx="1" ry="1" transform="rotate(88.9 6.5 139.8) scale(17.06265 164.08123)"/><ellipse fill="#fbffff" rx="1" ry="1" transform="matrix(-13.46797 -8.31394 15.66555 -25.37704 118.2 96.4)"/><ellipse fill="#0b0200" cx="169" cy="58" rx="255" ry="6"/><ellipse fill="#1e0d00" rx="1" ry="1" transform="rotate(-104.6 68 35.5) scale(15.63005 52.74321)"/><path fill="#e3dfe4" d="M131 94h125v14H131z"/><ellipse fill="#00314a" rx="1" ry="1" transform="matrix(.03372 9.65967 -154.20283 .53827 56.3 31.5)"/><path fill="#000c0a" d="M203.6 105.5l67.4 10.8-11.7 11.4-143.4-1.7z"/></g></svg>