<svg xmlns="http://www.w3.org/2000/svg" viewBox="0 0 3179 2160"><filter id="c"><feGaussianBlur stdDeviation="55" /></filter><path fill="#6b966e" d="M0 0h3179v2148H0z"/><g filter='url(#c)' fill-opacity='.5'><ellipse fill="#a5c7ad" fill-opacity=".5" rx="1" ry="1" transform="rotate(-57.6 1332.8 -2413) scale(881.90263 2308.59193)"/><ellipse fill="#4b7b4c" fill-opacity=".5" rx="1" ry="1" transform="matrix(-355.84811 776.68295 -1484.31305 -680.0587 1537.9 1978)"/><path fill="#fffbff" fill-opacity=".5" d="M3297 1186l-521.6-74.6 409.8-198.7z"/><path fill="#002811" fill-opacity=".5" d="M1272.8 1744.7l409.8 273.2-434.6 173.9z"/><path fill="#000600" fill-opacity=".5" d="M2945.6 1214.4l425.9 428.3-300-301.6 230.6-158.8z"/><path fill="#79a57d" fill-opacity=".5" d="M-31-192.5l2210.4 409.8 1130 1465.3z"/><ellipse fill="#fff6f3" fill-opacity=".5" rx="1" ry="1" transform="matrix(-282.102 188.13865 -16.23574 -24.34446 547.5 2079.2)"/><path fill="#000700" fill-opacity=".5" d="M155.2 2340.8l124.2-298 385-186.3z"/></g></svg>